<svg width="1024" height="1024" viewBox="0 0 1024 1024" fill="none" xmlns="http://www.w3.org/2000/svg">
  <rect width="1024" height="1024" fill="#FFFFFF"/>
  <g transform="translate(92 92) scale(0.82)">
    <circle cx="512" cy="512" r="512" fill="#52B788"/>
    <path d="M330 310C307.909 310 290 327.909 290 350V674C290 696.091 307.909 714 330 714H694C716.091 714 734 696.091 734 674V630H512C467.817 630 432 594.183 432 550V474C432 429.817 467.817 394 512 394H734V350C734 327.909 716.091 310 694 310H330Z" fill="#1B4332"/>
    <path d="M512 434C489.909 434 472 451.909 472 474V550C472 572.091 489.909 590 512 590H694C716.091 590 734 572.091 734 550V474C734 451.909 716.091 434 694 434H512Z" fill="#2D6A4F"/>
    <circle cx="603" cy="512" r="28" fill="#1B4332"/>
  </g>
</svg>
